/* XPM */
static char *_57e985cc8c24be694eaa4a06269f199OahH6VHlWUcmBuLh[] = {
/* columns rows colors chars-per-pixel */
"50 50 221 2 ",
"   c None",
".  c #3F0000",
"X  c #350618",
"o  c #4D0A02",
"O  c #5A0807",
"+  c #4C1100",
"@  c #560F13",
"#  c #740A04",
"$  c #65150D",
"%  c #58322E",
"&  c #7A3D38",
"*  c #7C484A",
"=  c #5D5169",
"-  c #870500",
";  c #871205",
":  c #A83C32",
">  c #BB7130",
",  c #D66312",
"<  c #F96800",
"1  c #F56D1F",
"2  c #F47B1D",
"3  c #DF7728",
"4  c #CF6F3F",
"5  c #D66935",
"6  c #DC713C",
"7  c #D77A38",
"8  c #F16B28",
"9  c #E17C29",
"0  c #E77524",
"q  c #FC7625",
"w  c #FF722C",
"e  c #F67E2C",
"r  c #F77824",
"t  c #EE7933",
"y  c #E6793B",
"u  c #E17632",
"i  c #FE7432",
"p  c #FE7E32",
"a  c #FE743D",
"s  c #F7743E",
"d  c #FB6A3B",
"f  c #995B49",
"g  c #834E54",
"h  c #864446",
"j  c #AF714C",
"k  c #BE7943",
"l  c #BB7053",
"z  c #A77B54",
"x  c #8D697A",
"c  c #B67F6B",
"v  c #BC7477",
"b  c #DF6D48",
"n  c #CD7948",
"m  c #D37B4D",
"M  c #D9784B",
"N  c #C9795A",
"B  c #E76A45",
"V  c #E97A48",
"C  c #FB7848",
"Z  c #F27B57",
"A  c #CE7B6B",
"S  c #C6851F",
"D  c #DF811D",
"F  c #E8811A",
"G  c #F2811B",
"H  c #E7901D",
"J  c #C98528",
"K  c #C9863C",
"L  c #CA8633",
"P  c #E38B22",
"I  c #EC872B",
"U  c #FF8424",
"Y  c #F3822E",
"T  c #FD852A",
"R  c #F58C2B",
"E  c #EB9121",
"W  c #F39127",
"Q  c #E68535",
"!  c #E8883A",
"~  c #F68434",
"^  c #FD8532",
"/  c #F3853D",
"(  c #FA8B37",
")  c #FC953C",
"_  c #AF8A5B",
"`  c #BE9E75",
"'  c #DB8948",
"]  c #CB8755",
"[  c #D58154",
"{  c #CC9054",
"}  c #D39258",
"|  c #E48A42",
" . c #EC8546",
".. c #F78848",
"X. c #FF9943",
"o. c #EA8B5E",
"O. c #E38656",
"+. c #FC8853",
"@. c #E59353",
"#. c #FF9557",
"$. c #EA964D",
"%. c #FFAC4F",
"&. c #CE836E",
"*. c #D88C68",
"=. c #D89564",
"-. c #DA9E7C",
";. c #E48C62",
":. c #E1876C",
">. c #E79668",
",. c #FE9469",
"<. c #FA9868",
"1. c #E7867A",
"2. c #EA997B",
"3. c #F69977",
"4. c #FA8C73",
"5. c #DCAD76",
"6. c #E6A678",
"7. c #FFA472",
"8. c #FFAA70",
"9. c #EABA7F",
"0. c #FEB178",
"q. c #7B7189",
"w. c #836E81",
"e. c #9C7681",
"r. c #938B9A",
"t. c #BE9289",
"y. c #BE9A98",
"u. c #B98997",
"i. c #BDB189",
"p. c #BFA7A7",
"a. c #FF9B84",
"s. c #DAB887",
"d. c #CCBA98",
"f. c #DCB998",
"g. c #CAAE96",
"h. c #F4A983",
"j. c #FDAD8C",
"k. c #F5AF8B",
"l. c #E5B78E",
"z. c #FDB489",
"x. c #E8AF94",
"c. c #E7B89A",
"v. c #FCBD94",
"b. c #FCBD99",
"n. c #F7B896",
"m. c #E5A383",
"M. c #D4B9BE",
"N. c #F9BFA6",
"B. c #E5B9B0",
"V. c #EFC684",
"C. c #F6CE89",
"Z. c #FFC68D",
"A. c #FFC498",
"S. c #E5C39D",
"D. c #D7CAA6",
"F. c #DAC8BE",
"G. c #E7C8A7",
"H. c #FDC3A2",
"J. c #FECDAD",
"K. c #FBC8AB",
"L. c #EED7AD",
"P. c #FED7AD",
"I. c #FCCCB3",
"U. c #F8C2B3",
"Y. c #FCDDBF",
"T. c #FCD7B6",
"R. c #E6DBBB",
"E. c #FFE6B9",
"W. c #FFEBB9",
"Q. c #FBE3B8",
"!. c #C4A4C2",
"~. c #DBBEC3",
"^. c #C5BACA",
"/. c #FFDCC5",
"(. c #F9D7C2",
"). c #FCD7D7",
"_. c #E5D7D7",
"`. c #FDE3C3",
"'. c #FDE5CD",
"]. c #FFEBCD",
"[. c #F3E3CC",
"{. c #FFF0C6",
"}. c #FFF5C9",
"|. c #FFE1D3",
" X c #FEECD4",
".X c #FEE5DB",
"XX c #FEEBDD",
"oX c #EDF3D1",
"OX c #FDF3D5",
"+X c #FFF3DC",
"@X c #FDFCDE",
"#X c #F1F6D6",
"$X c #EBECDA",
"%X c #EFDFEC",
"&X c #FFDCE5",
"*X c #C4FFF2",
"=X c #DBFEFF",
"-X c #E9EAE3",
";X c #FFE4E2",
":X c #FEECE4",
">X c #FFECED",
",X c #EEF6EF",
"<X c #EBFBEB",
"1X c #E5F5EB",
"2X c #FFF5E3",
"3X c #F1FAE7",
"4X c #FEFDE4",
"5X c #FDF5ED",
"6X c #F3FCEC",
"7X c #FCFDEB",
"8X c #F7F4ED",
"9X c #FEEBF3",
"0X c #F9E8F6",
"qX c #E8FFF9",
"wX c #F6F4F3",
"eX c #FFF3F4",
"rX c #F4FEF2",
"tX c #FCFDF2",
"yX c #FFF4FE",
"uX c #F4FEFE",
"iX c #FDFDFB",
/* pixels */
"                                                                                                    ",
"                                                                                                    ",
"                                          g.t.t.B.>X                                                ",
"                                        M.% o O $ $ * ~.                                            ",
"                                        ).h # ; ; # @ e.                                            ",
"                                        0Xv ; - - # O x                                             ",
"                                          ).1.a.a.: . w.                                            ",
"                                          ;XA a.4.1.g w.                                            ",
"                                          .Xc 6.l N.y.^.                                            ",
"                                          5Xg.c.G.B.F.0X                                            ",
"                                        tX2XD.d.G.d.[.7XeX                                          ",
"                                      7X].G.D.D.i.D.T.G./.7X                                        ",
"                                    +XT.m._ s.{.L.W.9.{ 6.P.5X                                      ",
"                                    `.0.| > 5.}.}.Z.$.Q 7 >. X                                      ",
"                                  2XP.! ~ Q ' v.A.@.R U r ' f.                                      ",
"                                  +XA., U ) n =.>. .U < U | z 2X                                    ",
"                                  +XD._ ] +.8 T F H P I  .M N H.                                    ",
"                                  4XR.` } +.8 r G H P 9 #.;.*.J.                                    ",
"                                  7XoXf.6.#.8 q G W F 9 8.j.m./.                                    ",
"                                  7X@XL.z.<.i q G W D 3 0.A.x.].                                    ",
"                                  7X4XQ.A.3.i w 2 R I 3 8.b.c. X                                    ",
"                                  6X4X`.A.<.a w 2 T I 6 ,.v.G.+X                                    ",
"                                  <X7XOXA.,.a w q e ~ y ;.n.(.7X                                    ",
"                                  1XrXOXn.,.C i p r p V O.K. XtX                                    ",
"                                  uX6X4XK.o.a i q ^ ( 5 >.N.7X                                      ",
"                                  uX<X4XJ.o.s w 8 r t 6 3.U.7X                                      ",
"                                  uX6X4XP.o.C w q 0 t Z j.Y.tX                                      ",
"                                  iXuX4XQ.@...p T e / V j.|.tX                                      ",
"                                  yXuX@XQ.=...Y T R / M 3..X5X                                      ",
"                                  wX6X#XW.{  .9 ( ( / 5 A XX5X                                      ",
"                                  8XrX#XW.{ ! 0 %.( ( 6 :.XX8X                                      ",
"                                  9XrXoXW.{ ! 3 %.)  .V :..X-X                                      ",
"                                  iX3X7X).O.W S C.6.C d [ 4X1X6X                                    ",
"                                  tX3XtX|.O.I S C.j.C C [ OX<X7X                                    ",
"                                  iX3X5X.Xo.I J V.H.B C m OX6X7X                                    ",
"                                  iX7XiXXX>.I J l.T.B Z n ].6X2X                                    ",
"                                  tXrXiX:X7.Q L 9.Q.B +.n (.7X4X                                    ",
"                                  rXtXeX>X6.Q L s.`.O.C m Y.2X4X                                    ",
"                                  ,XiXwX9Xk.Q K l.OX3.V m Y.2X4X                                    ",
"                                  ,XiXyXeXn.! L S.+Xh.V m (.XX2X                                    ",
"                                  iXeX%X9XJ.} _ (.2Xn.4 ;.'.XX7X                                    ",
"                                  ,XeXiXiXU.n =.].2X`.;.N U.XX2X                                    ",
"                                  iXyX0X0X(.n =.2XwX+X*.N ;XiX$X                                    ",
"                                =XiX9X0XyX2XN -.tXuX+Xx.A )._.                                      ",
"                                *X-X9XyXyX|.j x.eXqXrXc.f &XiX                                      ",
"                                  iX0X!.= % + f uXqXuXf.o u.iX                                      ",
"                                  rX9X!.q.          qX'.& X r.                                      ",
"                                                                                                    ",
"                                                                                                    ",
"                                                                                                    "
};
