/* XPM */
static char *_41be195e06645a7b729aaeb1cb8410aagdF87D1ZTAjzcYo[] = {
/* columns rows colors chars-per-pixel */
"50 50 242 2 ",
"   c None",
".  c #30252C",
"X  c #312436",
"o  c #491F23",
"O  c #4C3737",
"+  c #4B2926",
"@  c #793A2C",
"#  c #502015",
"$  c #774713",
"%  c #5A443E",
"&  c #774E37",
"*  c #735237",
"=  c #7C4927",
"-  c #4E3741",
";  c #674E4A",
":  c #776A72",
">  c #776D6E",
",  c #5C515B",
"<  c #873725",
"1  c #855C38",
"2  c #8D532E",
"3  c #A65834",
"4  c #A96F3F",
"5  c #DA5B39",
"6  c #CB5934",
"7  c #FF5B36",
"8  c #EC5E37",
"9  c #D8643A",
"0  c #C9673A",
"q  c #EC643C",
"w  c #E5693C",
"e  c #FB633C",
"r  c #F6643A",
"t  c #8C5847",
"y  c #9E745E",
"u  c #936F53",
"i  c #BA6949",
"p  c #A66957",
"a  c #BC6C53",
"s  c #B66C5A",
"d  c #B87658",
"f  c #AC7A4E",
"g  c #987763",
"h  c #967C72",
"j  c #82796B",
"k  c #A87866",
"l  c #B57C6B",
"z  c #B87564",
"x  c #B07870",
"c  c #DB5C42",
"v  c #E95F42",
"b  c #FB5C45",
"n  c #CA6646",
"m  c #D26C4C",
"M  c #DC6D4C",
"N  c #D66747",
"B  c #C96B5A",
"V  c #DB6D53",
"C  c #D56B54",
"Z  c #C67458",
"A  c #DA7254",
"S  c #D67758",
"D  c #CA744E",
"F  c #E36444",
"G  c #E3654A",
"H  c #E46B4B",
"J  c #EA6946",
"K  c #FD6343",
"L  c #F46A44",
"P  c #FD654A",
"I  c #F36A4B",
"U  c #F76846",
"Y  c #E9784C",
"T  c #F57749",
"R  c #E36B51",
"E  c #E86B55",
"W  c #E47D5C",
"Q  c #E77654",
"!  c #F67757",
"~  c #C97765",
"^  c #D47864",
"/  c #E97F64",
"(  c #7D865F",
")  c #7D8577",
"_  c #8E8458",
"`  c #B28653",
"'  c #8D866D",
"]  c #9A8767",
"[  c #99966D",
"{  c #8A877A",
"}  c #9E8B74",
"|  c #978876",
" . c #8E937F",
".. c #909075",
"X. c #A38768",
"o. c #B78769",
"O. c #A99668",
"+. c #B69468",
"@. c #AA8B75",
"#. c #B88974",
"$. c #A79675",
"%. c #B79879",
"&. c #B8A478",
"*. c #B3A06D",
"=. c #DA855C",
"-. c #CB854F",
";. c #E5865D",
":. c #FA8259",
">. c #C78463",
",. c #D58569",
"<. c #CD8C75",
"1. c #C79576",
"2. c #D89778",
"3. c #D0926C",
"4. c #FF8A73",
"5. c #EE8C6C",
"6. c #C5AA7A",
"7. c #D6A57B",
"8. c #E8AA77",
"9. c #F1B47D",
"0. c #F2C67D",
"q. c #797481",
"w. c #817C87",
"e. c #788B8C",
"r. c #8A8784",
"t. c #9B898D",
"y. c #9A9686",
"u. c #8A8C97",
"i. c #958D98",
"p. c #8A949B",
"a. c #9D9C9E",
"s. c #97959B",
"d. c #A48B83",
"f. c #A69584",
"g. c #BA9885",
"h. c #A49A9A",
"j. c #BB8D82",
"k. c #9DA095",
"l. c #BDAB84",
"z. c #AAA39A",
"x. c #BAA997",
"c. c #BAB39A",
"v. c #B7B58E",
"b. c #9C9DA3",
"n. c #AF9DA2",
"m. c #9DA3A6",
"M. c #9AADB4",
"N. c #A8A8A4",
"B. c #B4A8AA",
"V. c #B5A9B3",
"C. c #B5B7B9",
"Z. c #B2B3B0",
"A. c #C99C89",
"S. c #D99987",
"D. c #E69A83",
"F. c #FF9A80",
"G. c #C6AA87",
"H. c #D7A885",
"J. c #C9B187",
"K. c #D7B389",
"L. c #C4A796",
"P. c #CCBA9B",
"I. c #C7B695",
"U. c #D1B49A",
"Y. c #D6BA96",
"T. c #D3AF91",
"R. c #E5A985",
"E. c #F4AC86",
"W. c #E8B385",
"Q. c #F8BC85",
"!. c #E8B395",
"~. c #F6B996",
"^. c #ECAF90",
"/. c #CCBBA7",
"(. c #D5B9A7",
"). c #C9B4AF",
"_. c #E9B9A8",
"`. c #B4C0B1",
"'. c #DAC998",
"]. c #DDD096",
"[. c #EDCC86",
"{. c #E4CC8C",
"}. c #ECCC8D",
"|. c #E7CF86",
" X c #F2CD8A",
".X c #FCCA8D",
"XX c #E7D18C",
"oX c #F3D38C",
"OX c #ECCC92",
"+X c #E3CD9A",
"@X c #ECCC9B",
"#X c #E8C893",
"$X c #F2CE94",
"%X c #FBCD92",
"&X c #F6CA9A",
"*X c #E6D393",
"=X c #EDD294",
"-X c #E5D49B",
";X c #ECD49C",
":X c #E9D99A",
">X c #F2D294",
",X c #FBD393",
"<X c #F3D39C",
"1X c #F5D99C",
"2X c #DCCBA9",
"3X c #DBD3A9",
"4X c #D7C9B8",
"5X c #CEC6B2",
"6X c #E7C8A7",
"7X c #F8CBA4",
"8X c #E4D3A3",
"9X c #ECD4A3",
"0X c #EBDAA4",
"qX c #E5D2AC",
"wX c #E9D9A9",
"eX c #F3D4A4",
"rX c #F8D5A4",
"tX c #F8D8A9",
"yX c #E5DBB3",
"uX c #EADBBC",
"iX c #E5D5B5",
"pX c #F7DAB5",
"aX c #E1CEB8",
"sX c #EBE4BC",
"dX c #F7E5B3",
"fX c #C4BBC6",
"gX c #CDC9CC",
"hX c #E6D7CB",
"jX c #E8D3CE",
"kX c #EBE5C8",
"lX c #FAECC4",
"zX c #FFF2C9",
"xX c #FAEBD8",
"cX c #FEF6DA",
"vX c #ECE0DD",
"bX c #E2DCE9",
"nX c #E9E7EC",
"mX c #FFFAE8",
"MX c #FFFCF4",
"NX c #F4F3F3",
"BX c #ECEFED",
"VX c #D8DDE8",
/* pixels */
"                                                                                                    ",
"                                                                                                    ",
"                                                                                                    ",
"                                                                                                    ",
"                          NX                                                                        ",
"              C.          gXgX      mXBXC.NXcXcXxXmXMX5X4XMX        fXbX          C.                ",
"              s.          N.C.MX  mXcXkX{ 4X3X3XiXiXuX$.f.kXkXxXmXmXs.gX        VXp.                ",
"              m.          N.gXMXmXuX3X3X' 2X:X*X@X'.sX&.&.yX'.yXuXmXt.vXMX      NXu.                ",
"              m.          B.5XxX6X+XwX'.] 8X*XoX}.#XtX&.*.:X-X0X8X6Xd.hXMX        p.                ",
"              b.          z.c.uX6X-X:X-X] '.|.0.%X%XrX*.*.0X<X{.-XqX| ).cXmX    nXu.                ",
"              a.          f.x.iX@X<X*X'.] +X>X,X%X&X7X%.%.9X=XOX#XwX@.I.yXlXcX  nXi.                ",
"              a.          $.l.wX#X>X*X3XX.6X9.9.Q.~.7XG.&.9X<X>X{.8X$.U.3X].sX  nXi.                ",
"              z.      hX2XO.J.tX&X X-X'.] 6X7.Q.E.^._.g.%.tX<X}.>X-XX.P.0X].8XlXvXi.                ",
"              h.      2XqX$.6.>X,X}.-X'.| U.2.8.R.<.A.g.G.wXOX$X=X;X@.U.0X*X3XyXjXs.                ",
"              N.    aX2XpXO.6.>X[.|.:X8X@.j.3.Z E.<.A.g.L.9X}.,X{.;X@.U.:X*X-XqX4Xh.                ",
"              N.    2X8XtXO.6.1X XoX{.'.] @.OX9.~.!.7Xg.l.wX>X[.=X=X@.U.1XXX*XpX(.h.                ",
"              k.sX'.+X+XwX+.G.rXOXXX*X-Xg G.R.>.p p _.%.%.9X>X X X@X@.U.>XoXXX:X5Xr.                ",
"              y.wX{.;X*X9XO.6.tX;X>X}.#X#.A.z 3 p ; #.%.1.#XQ..X,X1X@.L.rX}.XX0Xc. .                ",
"              d.9X=X<X+X0XO.G.wXXXoX.X7.k 1.o.2 1 * k <.a S Y 4.9.1X| c.0X|.XX0X/.| kX              ",
"              d.rX>XOX*XwXO.l.tX,X;.=.S i <.2.2 1 = p <.S H J w -.K.$./.:XoX>X:XP.} aX              ",
"              d.tX$X#X#XeXO.G.7XE.5 5 R B ~ ,.3 2 = u a C H I q w -.o._.@X X>X<XP.@.2X              ",
"              f.eXOX&X<X9XO.J.7XN U P I B B V n i i Z B A G I P r 9 s _.&X>X}.<X'.] 2XlX            ",
"              y.8X=X$X<XeX+.H.E.5 P I c B ^ E v c V S i R / M w w 0 p (.9X-XOX<XY.] 8XuX            ",
"               .wX*XOX&X&X1.S.Z v b I Q s B I P b 4.F./ 5.4.Q Y w S y /.8X*X=X<XY.k 9XyX            ",
"               .3X*X:X{.tX7.o.S / :.! W ~ S U b b ! 4.A m 5.W Q Y ;.X./.yX:X=X<XK.X.8XyX            ",
"               .wX{.:XOX;X%.o.d W Y Q W z ~ ! 7 b b M N A W A ;.T W o.L.0X=X=XOXY.] 2XyX            ",
"              y.8X{.;X;X-XO.%.1.S H m D s Z H q v F N n m C n R I M z j.&XOX1X;X'.] 3XsX            ",
"              y.0X=X>X9XwXO.'.pXE.E.S 3 s ~ c q J G n m S C S ^ N C x #.eX[.oX<X'.] 3XkX            ",
"              d.eX>X#XOXeXO.Y.xXdXdX&X` z ^ v K P b v M B i <.~.E.~.@.L.tXoX[.;XI.] iXxX            ",
"              y.9X$XOX&X7Xo.>.S.7XdXzX7Xx ~ I b b P I N d 1._.xXlXzXd.x.OXoX X1XI.' iX              ",
"              y.0X$X,X7XE.>.B ^ ^ 5.tXpXl ~ F K K P F i H.zXcXpX7X~.x x ` 0. X1XP.| hX              ",
"              y.yX!.#X8.d a C E E N ^ E.#.S.H K b J A Z H.pX!.,.S a x l 4 Q.,X<X/.t.kX              ",
"              j f.g.+.o.d a A J L T F ;.z R.! q L H ;.,.2.2.R q L M k k f 8.9.K.L.h xX              ",
"                % + * * = i M w r e q H z !.5.w N m 5.D.<.S q K 7 I p k 4 ` -.%.d.t.h 2X            ",
"                        ` d S J J T r F z _.E.,.D a S.S.` a 5 7 7 ! z y $ $ 2 * : w.; /.            ",
"                        T.d Z R L K 8 E l (.^.H.7.S._.A.+.7.T r 7 v d y +.3.%.L.n.a.                ",
"                        x.#.s V L e 7 R k x.J.K.H.G.U.@.O.R.:.8 e J s @.!.K.G.    p.                ",
"              a.          X.l B I e L N g v.'.6.T.G.L.$.$.K.:.r e F z A.6.&.uX    p.                ",
"              a.          | %.~ H U L N ] c.].&.K.J.I.[ $.6.H r I n p L.I.uX      p.                ",
"              s.          B.g.S.m J L D g v.v.&.6.T.'.[ *.J.m Y V Z g B.          u.                ",
"              m.          k.).xX^ ~ C ^ g ..[ _ O.] ] ' | #.s B s k d.            p.                ",
"                            B.jXL.p < @ h { ( ( * u ' ' | h @ @ t U.w.            u.                ",
"                            h.n.t.; # # > ) ) ..[ ....> r.: + o O n.r.            r.                ",
"                            s., . . O > e.M.N.k.z.h.m.p.b.w.- - . r.              i.                ",
"                              i.q.q.i.`.e.M.Z.N.B.V.M.e.p.b.: ,                   a.                ",
"                                          M.V.V.B.V.`.M.                                            ",
"                                                                                                    ",
"                                                                                                    ",
"                                                                                                    ",
"                                                                                                    "
};
